<mxfile host="app.diagrams.net" modified="2024-06-21T06:41:25.252Z" agent="Mozilla/5.0 (Macintosh; Intel Mac OS X 10_15_7) AppleWebKit/537.36 (KHTML, like Gecko) Chrome/126.0.0.0 Safari/537.36" etag="DxmdhFjxL-E6mAZve7Vk" version="24.6.0" type="github">
  <diagram name="第 1 页" id="Xy6LXEZvLt63igF1gt5p">
    <mxGraphModel dx="1562" dy="833" grid="1" gridSize="10" guides="1" tooltips="1" connect="1" arrows="1" fold="1" page="1" pageScale="1" pageWidth="827" pageHeight="1169" math="0" shadow="0">
      <root>
        <mxCell id="0" />
        <mxCell id="1" parent="0" />
        <mxCell id="TqsmYCLOViqrvoBPUzZE-4" style="edgeStyle=orthogonalEdgeStyle;rounded=0;orthogonalLoop=1;jettySize=auto;html=1;exitX=0.5;exitY=1;exitDx=0;exitDy=0;entryX=0.5;entryY=0;entryDx=0;entryDy=0;" parent="1" source="TqsmYCLOViqrvoBPUzZE-2" target="TqsmYCLOViqrvoBPUzZE-3" edge="1">
          <mxGeometry relative="1" as="geometry" />
        </mxCell>
        <mxCell id="TqsmYCLOViqrvoBPUzZE-2" value="请求流量" style="rounded=1;whiteSpace=wrap;html=1;" parent="1" vertex="1">
          <mxGeometry x="530" y="50" width="120" height="60" as="geometry" />
        </mxCell>
        <mxCell id="TqsmYCLOViqrvoBPUzZE-6" style="edgeStyle=orthogonalEdgeStyle;rounded=0;orthogonalLoop=1;jettySize=auto;html=1;exitX=0;exitY=0.5;exitDx=0;exitDy=0;entryX=0.5;entryY=0;entryDx=0;entryDy=0;" parent="1" source="TqsmYCLOViqrvoBPUzZE-3" target="TqsmYCLOViqrvoBPUzZE-5" edge="1">
          <mxGeometry relative="1" as="geometry" />
        </mxCell>
        <mxCell id="TqsmYCLOViqrvoBPUzZE-7" value="CoreDNS" style="edgeLabel;html=1;align=center;verticalAlign=middle;resizable=0;points=[];" parent="TqsmYCLOViqrvoBPUzZE-6" vertex="1" connectable="0">
          <mxGeometry x="-0.0341" y="1" relative="1" as="geometry">
            <mxPoint as="offset" />
          </mxGeometry>
        </mxCell>
        <mxCell id="TqsmYCLOViqrvoBPUzZE-11" style="edgeStyle=orthogonalEdgeStyle;rounded=0;orthogonalLoop=1;jettySize=auto;html=1;exitX=1;exitY=0.5;exitDx=0;exitDy=0;" parent="1" source="TqsmYCLOViqrvoBPUzZE-3" target="TqsmYCLOViqrvoBPUzZE-10" edge="1">
          <mxGeometry relative="1" as="geometry" />
        </mxCell>
        <mxCell id="TqsmYCLOViqrvoBPUzZE-15" value="公网LB" style="edgeLabel;html=1;align=center;verticalAlign=middle;resizable=0;points=[];" parent="TqsmYCLOViqrvoBPUzZE-11" vertex="1" connectable="0">
          <mxGeometry x="-0.3943" y="-1" relative="1" as="geometry">
            <mxPoint as="offset" />
          </mxGeometry>
        </mxCell>
        <mxCell id="TqsmYCLOViqrvoBPUzZE-3" value="当前网络环境判断" style="rhombus;whiteSpace=wrap;html=1;" parent="1" vertex="1">
          <mxGeometry x="500" y="160" width="180" height="70" as="geometry" />
        </mxCell>
        <mxCell id="TqsmYCLOViqrvoBPUzZE-9" style="edgeStyle=orthogonalEdgeStyle;rounded=0;orthogonalLoop=1;jettySize=auto;html=1;exitX=0.5;exitY=1;exitDx=0;exitDy=0;" parent="1" source="TqsmYCLOViqrvoBPUzZE-5" target="TqsmYCLOViqrvoBPUzZE-8" edge="1">
          <mxGeometry relative="1" as="geometry" />
        </mxCell>
        <mxCell id="TqsmYCLOViqrvoBPUzZE-5" value="办公网" style="rounded=1;whiteSpace=wrap;html=1;" parent="1" vertex="1">
          <mxGeometry x="310" y="270" width="120" height="60" as="geometry" />
        </mxCell>
        <mxCell id="TqsmYCLOViqrvoBPUzZE-8" value="内网链路" style="rounded=1;whiteSpace=wrap;html=1;" parent="1" vertex="1">
          <mxGeometry x="310" y="400" width="120" height="60" as="geometry" />
        </mxCell>
        <mxCell id="TqsmYCLOViqrvoBPUzZE-13" style="edgeStyle=orthogonalEdgeStyle;rounded=0;orthogonalLoop=1;jettySize=auto;html=1;exitX=0.5;exitY=1;exitDx=0;exitDy=0;entryX=0.5;entryY=0;entryDx=0;entryDy=0;" parent="1" source="TqsmYCLOViqrvoBPUzZE-10" target="TqsmYCLOViqrvoBPUzZE-12" edge="1">
          <mxGeometry relative="1" as="geometry" />
        </mxCell>
        <mxCell id="TqsmYCLOViqrvoBPUzZE-10" value="外网 | VPN" style="rounded=1;whiteSpace=wrap;html=1;" parent="1" vertex="1">
          <mxGeometry x="720" y="270" width="120" height="60" as="geometry" />
        </mxCell>
        <mxCell id="TqsmYCLOViqrvoBPUzZE-17" style="edgeStyle=orthogonalEdgeStyle;rounded=0;orthogonalLoop=1;jettySize=auto;html=1;exitX=0.5;exitY=1;exitDx=0;exitDy=0;" parent="1" source="TqsmYCLOViqrvoBPUzZE-12" edge="1">
          <mxGeometry relative="1" as="geometry">
            <mxPoint x="780" y="520" as="targetPoint" />
          </mxGeometry>
        </mxCell>
        <mxCell id="TqsmYCLOViqrvoBPUzZE-12" value="信息化网关" style="rounded=1;whiteSpace=wrap;html=1;" parent="1" vertex="1">
          <mxGeometry x="720" y="400" width="120" height="60" as="geometry" />
        </mxCell>
        <mxCell id="TqsmYCLOViqrvoBPUzZE-39" style="edgeStyle=orthogonalEdgeStyle;rounded=0;orthogonalLoop=1;jettySize=auto;html=1;exitX=0.5;exitY=1;exitDx=0;exitDy=0;entryX=0.5;entryY=0;entryDx=0;entryDy=0;" parent="1" source="TqsmYCLOViqrvoBPUzZE-18" target="TqsmYCLOViqrvoBPUzZE-28" edge="1">
          <mxGeometry relative="1" as="geometry" />
        </mxCell>
        <mxCell id="TqsmYCLOViqrvoBPUzZE-40" value="否" style="edgeLabel;html=1;align=center;verticalAlign=middle;resizable=0;points=[];" parent="TqsmYCLOViqrvoBPUzZE-39" vertex="1" connectable="0">
          <mxGeometry x="-0.2" relative="1" as="geometry">
            <mxPoint as="offset" />
          </mxGeometry>
        </mxCell>
        <mxCell id="TqsmYCLOViqrvoBPUzZE-52" style="edgeStyle=orthogonalEdgeStyle;rounded=0;orthogonalLoop=1;jettySize=auto;html=1;entryX=0;entryY=0.5;entryDx=0;entryDy=0;" parent="1" source="TqsmYCLOViqrvoBPUzZE-18" target="TqsmYCLOViqrvoBPUzZE-22" edge="1">
          <mxGeometry relative="1" as="geometry" />
        </mxCell>
        <mxCell id="TqsmYCLOViqrvoBPUzZE-60" value="是" style="edgeLabel;html=1;align=center;verticalAlign=middle;resizable=0;points=[];" parent="TqsmYCLOViqrvoBPUzZE-52" vertex="1" connectable="0">
          <mxGeometry x="-0.3714" y="-4" relative="1" as="geometry">
            <mxPoint as="offset" />
          </mxGeometry>
        </mxCell>
        <mxCell id="TqsmYCLOViqrvoBPUzZE-18" value="出口IP白名单判断(CIDR)" style="rhombus;whiteSpace=wrap;html=1;" parent="1" vertex="1">
          <mxGeometry x="690" y="520" width="180" height="70" as="geometry" />
        </mxCell>
        <mxCell id="TqsmYCLOViqrvoBPUzZE-54" style="edgeStyle=orthogonalEdgeStyle;rounded=0;orthogonalLoop=1;jettySize=auto;html=1;" parent="1" source="TqsmYCLOViqrvoBPUzZE-22" target="TqsmYCLOViqrvoBPUzZE-53" edge="1">
          <mxGeometry relative="1" as="geometry" />
        </mxCell>
        <mxCell id="TqsmYCLOViqrvoBPUzZE-55" value="是" style="edgeLabel;html=1;align=center;verticalAlign=middle;resizable=0;points=[];" parent="TqsmYCLOViqrvoBPUzZE-54" vertex="1" connectable="0">
          <mxGeometry x="0.1333" y="2" relative="1" as="geometry">
            <mxPoint as="offset" />
          </mxGeometry>
        </mxCell>
        <mxCell id="TqsmYCLOViqrvoBPUzZE-74" style="edgeStyle=orthogonalEdgeStyle;rounded=0;orthogonalLoop=1;jettySize=auto;html=1;exitX=0.5;exitY=1;exitDx=0;exitDy=0;entryX=0.5;entryY=0;entryDx=0;entryDy=0;" parent="1" source="TqsmYCLOViqrvoBPUzZE-22" target="TqsmYCLOViqrvoBPUzZE-65" edge="1">
          <mxGeometry relative="1" as="geometry">
            <Array as="points">
              <mxPoint x="1135" y="1120" />
              <mxPoint x="780" y="1120" />
            </Array>
          </mxGeometry>
        </mxCell>
        <mxCell id="TqsmYCLOViqrvoBPUzZE-22" value="限流+熔断判断" style="rhombus;whiteSpace=wrap;html=1;" parent="1" vertex="1">
          <mxGeometry x="1050" y="515" width="170" height="80" as="geometry" />
        </mxCell>
        <mxCell id="TqsmYCLOViqrvoBPUzZE-42" value="成功" style="edgeStyle=orthogonalEdgeStyle;rounded=0;orthogonalLoop=1;jettySize=auto;html=1;exitX=0.5;exitY=1;exitDx=0;exitDy=0;" parent="1" source="TqsmYCLOViqrvoBPUzZE-28" target="TqsmYCLOViqrvoBPUzZE-41" edge="1">
          <mxGeometry relative="1" as="geometry" />
        </mxCell>
        <mxCell id="TqsmYCLOViqrvoBPUzZE-58" style="edgeStyle=orthogonalEdgeStyle;rounded=0;orthogonalLoop=1;jettySize=auto;html=1;entryX=1;entryY=0.5;entryDx=0;entryDy=0;" parent="1" source="TqsmYCLOViqrvoBPUzZE-28" target="TqsmYCLOViqrvoBPUzZE-57" edge="1">
          <mxGeometry relative="1" as="geometry" />
        </mxCell>
        <mxCell id="TqsmYCLOViqrvoBPUzZE-59" value="失败" style="edgeLabel;html=1;align=center;verticalAlign=middle;resizable=0;points=[];" parent="TqsmYCLOViqrvoBPUzZE-58" vertex="1" connectable="0">
          <mxGeometry x="-0.0465" y="1" relative="1" as="geometry">
            <mxPoint as="offset" />
          </mxGeometry>
        </mxCell>
        <mxCell id="TqsmYCLOViqrvoBPUzZE-28" value="cookie判断" style="rhombus;whiteSpace=wrap;html=1;" parent="1" vertex="1">
          <mxGeometry x="690" y="660" width="180" height="70" as="geometry" />
        </mxCell>
        <mxCell id="TqsmYCLOViqrvoBPUzZE-44" style="edgeStyle=orthogonalEdgeStyle;rounded=0;orthogonalLoop=1;jettySize=auto;html=1;exitX=0.5;exitY=1;exitDx=0;exitDy=0;" parent="1" source="TqsmYCLOViqrvoBPUzZE-41" edge="1">
          <mxGeometry relative="1" as="geometry">
            <mxPoint x="780" y="950" as="targetPoint" />
          </mxGeometry>
        </mxCell>
        <mxCell id="TqsmYCLOViqrvoBPUzZE-45" value="不允许" style="edgeLabel;html=1;align=center;verticalAlign=middle;resizable=0;points=[];" parent="TqsmYCLOViqrvoBPUzZE-44" vertex="1" connectable="0">
          <mxGeometry x="-0.175" y="2" relative="1" as="geometry">
            <mxPoint as="offset" />
          </mxGeometry>
        </mxCell>
        <mxCell id="TqsmYCLOViqrvoBPUzZE-63" style="edgeStyle=orthogonalEdgeStyle;rounded=0;orthogonalLoop=1;jettySize=auto;html=1;entryX=1;entryY=0.5;entryDx=0;entryDy=0;" parent="1" source="TqsmYCLOViqrvoBPUzZE-41" target="TqsmYCLOViqrvoBPUzZE-62" edge="1">
          <mxGeometry relative="1" as="geometry" />
        </mxCell>
        <mxCell id="TqsmYCLOViqrvoBPUzZE-64" value="允许" style="edgeLabel;html=1;align=center;verticalAlign=middle;resizable=0;points=[];" parent="TqsmYCLOViqrvoBPUzZE-63" vertex="1" connectable="0">
          <mxGeometry x="-0.18" y="3" relative="1" as="geometry">
            <mxPoint as="offset" />
          </mxGeometry>
        </mxCell>
        <mxCell id="TqsmYCLOViqrvoBPUzZE-41" value="请求头判断" style="rhombus;whiteSpace=wrap;html=1;" parent="1" vertex="1">
          <mxGeometry x="690" y="800" width="180" height="70" as="geometry" />
        </mxCell>
        <mxCell id="TqsmYCLOViqrvoBPUzZE-71" style="edgeStyle=orthogonalEdgeStyle;rounded=0;orthogonalLoop=1;jettySize=auto;html=1;" parent="1" source="TqsmYCLOViqrvoBPUzZE-46" target="TqsmYCLOViqrvoBPUzZE-70" edge="1">
          <mxGeometry relative="1" as="geometry" />
        </mxCell>
        <mxCell id="TqsmYCLOViqrvoBPUzZE-72" value="否" style="edgeLabel;html=1;align=center;verticalAlign=middle;resizable=0;points=[];" parent="TqsmYCLOViqrvoBPUzZE-71" vertex="1" connectable="0">
          <mxGeometry x="-0.1" y="-1" relative="1" as="geometry">
            <mxPoint as="offset" />
          </mxGeometry>
        </mxCell>
        <mxCell id="TqsmYCLOViqrvoBPUzZE-73" style="edgeStyle=orthogonalEdgeStyle;rounded=0;orthogonalLoop=1;jettySize=auto;html=1;entryX=0.5;entryY=0;entryDx=0;entryDy=0;" parent="1" source="TqsmYCLOViqrvoBPUzZE-46" target="TqsmYCLOViqrvoBPUzZE-65" edge="1">
          <mxGeometry relative="1" as="geometry" />
        </mxCell>
        <mxCell id="TqsmYCLOViqrvoBPUzZE-46" value="vpn登录态判断" style="rhombus;whiteSpace=wrap;html=1;" parent="1" vertex="1">
          <mxGeometry x="690" y="950" width="180" height="70" as="geometry" />
        </mxCell>
        <mxCell id="TqsmYCLOViqrvoBPUzZE-53" value="网关异常页" style="rounded=1;whiteSpace=wrap;html=1;" parent="1" vertex="1">
          <mxGeometry x="1280" y="525" width="120" height="60" as="geometry" />
        </mxCell>
        <mxCell id="TqsmYCLOViqrvoBPUzZE-57" value="网关异常页" style="rounded=1;whiteSpace=wrap;html=1;" parent="1" vertex="1">
          <mxGeometry x="390" y="665" width="120" height="60" as="geometry" />
        </mxCell>
        <mxCell id="TqsmYCLOViqrvoBPUzZE-66" style="edgeStyle=orthogonalEdgeStyle;rounded=0;orthogonalLoop=1;jettySize=auto;html=1;exitX=0.5;exitY=1;exitDx=0;exitDy=0;" parent="1" source="TqsmYCLOViqrvoBPUzZE-62" target="TqsmYCLOViqrvoBPUzZE-65" edge="1">
          <mxGeometry relative="1" as="geometry">
            <Array as="points">
              <mxPoint x="555" y="1120" />
              <mxPoint x="780" y="1120" />
            </Array>
          </mxGeometry>
        </mxCell>
        <mxCell id="TqsmYCLOViqrvoBPUzZE-68" style="edgeStyle=orthogonalEdgeStyle;rounded=0;orthogonalLoop=1;jettySize=auto;html=1;exitX=0;exitY=0.5;exitDx=0;exitDy=0;" parent="1" source="TqsmYCLOViqrvoBPUzZE-62" target="TqsmYCLOViqrvoBPUzZE-67" edge="1">
          <mxGeometry relative="1" as="geometry" />
        </mxCell>
        <mxCell id="TqsmYCLOViqrvoBPUzZE-69" value="失败" style="edgeLabel;html=1;align=center;verticalAlign=middle;resizable=0;points=[];" parent="TqsmYCLOViqrvoBPUzZE-68" vertex="1" connectable="0">
          <mxGeometry x="0.05" y="3" relative="1" as="geometry">
            <mxPoint as="offset" />
          </mxGeometry>
        </mxCell>
        <mxCell id="TqsmYCLOViqrvoBPUzZE-62" value="&lt;font color=&quot;#7a7e85&quot;&gt;签名认证(废弃)&lt;/font&gt;" style="rhombus;whiteSpace=wrap;html=1;" parent="1" vertex="1">
          <mxGeometry x="470" y="795" width="170" height="80" as="geometry" />
        </mxCell>
        <mxCell id="TqsmYCLOViqrvoBPUzZE-65" value="请求转发" style="rounded=1;whiteSpace=wrap;html=1;" parent="1" vertex="1">
          <mxGeometry x="720" y="1230" width="120" height="60" as="geometry" />
        </mxCell>
        <mxCell id="TqsmYCLOViqrvoBPUzZE-67" value="网关异常页" style="rounded=1;whiteSpace=wrap;html=1;" parent="1" vertex="1">
          <mxGeometry x="270" y="805" width="120" height="60" as="geometry" />
        </mxCell>
        <mxCell id="TqsmYCLOViqrvoBPUzZE-70" value="网关异常页" style="rounded=1;whiteSpace=wrap;html=1;" parent="1" vertex="1">
          <mxGeometry x="930" y="955" width="120" height="60" as="geometry" />
        </mxCell>
      </root>
    </mxGraphModel>
  </diagram>
</mxfile>
